<?xml version="1.0" encoding="utf-8"?>
<!-- Generator: Adobe Illustrator 26.5.0, SVG Export Plug-In . SVG Version: 6.00 Build 0)  -->
<svg version="1.1" id="logo" xmlns="http://www.w3.org/2000/svg" xmlns:xlink="http://www.w3.org/1999/xlink" x="0px" y="0px"
	 viewBox="0 0 136 117.5" style="enable-background:new 0 0 136 117.5;" xml:space="preserve">
<style type="text/css">
	.st0{fill:#FFFFFF;}
</style>
<path id="Tracé_79" class="st0" d="M24.1,107.2c0-3-1.9-4.6-4.8-4.6h-5.7v14.6H16v-5.5h2.8l3.1,5.5h2.8l-3.5-5.8
	C23.1,110.8,24.3,109.1,24.1,107.2 M19.3,109.5H16V105h3.3c1.4,0,2.4,0.7,2.4,2.2c0.1,1.2-0.8,2.2-2,2.3
	C19.6,109.5,19.5,109.5,19.3,109.5"/>
<path id="Tracé_80" class="st0" d="M31.8,102.6l-5.2,14.6h2.6l1-3H36l1,3h2.6l-5.2-14.6H31.8z M31,111.9l2.1-6.2l2.1,6.2H31z"/>
<path id="Tracé_81" class="st0" d="M50.8,112.5l-6-9.8h-2.5v14.6h2.5v-9.7l6.2,9.7h2.3v-14.6h-2.5V112.5z"/>
<path id="Tracé_82" class="st0" d="M65.1,109.1c-1.4-0.6-3.2-0.7-4.4-1.2c-0.7-0.3-1.2-0.7-1.2-1.5c0-1,1-1.7,2.6-1.7
	c1.4,0,2.7,0.5,3.6,1.6l1.7-1.6c-1.3-1.6-3.2-2.4-5.2-2.3c-3.2,0-5.1,1.7-5.1,4.1c0,1.8,1,2.7,2.5,3.3c1.5,0.6,3.1,0.8,4.3,1.3
	c0.8,0.3,1.4,0.7,1.4,1.7c0,1.4-1.2,2.2-3.1,2.2c-1.6,0-3.2-0.7-4.2-1.9l-1.9,1.6c1.5,1.8,3.7,2.8,6,2.6c3.3,0,5.7-1.5,5.7-4.5
	C67.7,111.2,66.7,109.7,65.1,109.1"/>
<path id="Tracé_83" class="st0" d="M76.7,102.6h-5.9v14.6h2.5v-5.4h3.4c2.9,0,4.8-1.6,4.8-4.6S79.6,102.6,76.7,102.6 M76.7,109.5
	h-3.4V105h3.4c1.3-0.1,2.3,0.9,2.4,2.1c0.1,1.3-0.9,2.3-2.1,2.4C76.9,109.6,76.8,109.6,76.7,109.5"/>
<path id="Tracé_84" class="st0" d="M90.5,102.3c-3.6,0-6.2,2.6-6.2,7.6c0,4.9,2.5,7.5,6.2,7.5c3.6,0,6.2-2.6,6.2-7.5
	C96.6,104.9,94.1,102.3,90.5,102.3 M90.5,115.1c-2.2,0-3.7-1.7-3.7-5.1s1.5-5.2,3.7-5.2s3.7,1.8,3.7,5.2
	C94.2,113.3,92.7,115.1,90.5,115.1"/>
<path id="Tracé_85" class="st0" d="M110.9,107.2c0-3-1.9-4.6-4.8-4.6h-5.7v14.6h2.5v-5.5h2.8l3.1,5.5h2.8l-3.5-5.8
	C109.9,110.8,111,109.1,110.9,107.2 M106.1,109.5h-3.3V105h3.3c1.4,0,2.4,0.7,2.4,2.2c0.1,1.2-0.8,2.2-2,2.3
	C106.4,109.5,106.2,109.5,106.1,109.5"/>
<path id="Tracé_86" class="st0" d="M112.7,105h4.1v12.2h2.5V105h4.1v-2.4h-10.7V105z"/>
<path id="Tracé_87" class="st0" d="M133.4,109.1c-1.4-0.6-3.2-0.7-4.4-1.2c-0.7-0.3-1.2-0.7-1.2-1.5c0-1,1-1.7,2.6-1.7
	c1.4,0,2.7,0.5,3.6,1.6l1.7-1.6c-1.3-1.6-3.2-2.4-5.2-2.3c-3.2,0-5.1,1.7-5.1,4.1c0,1.8,1,2.7,2.5,3.3c1.5,0.6,3.1,0.8,4.3,1.3
	c0.8,0.3,1.4,0.7,1.4,1.7c0,1.4-1.2,2.2-3.1,2.2c-1.6,0-3.2-0.7-4.2-1.9l-1.9,1.6c1.5,1.8,3.7,2.8,6,2.6c3.3,0,5.7-1.5,5.7-4.5
	C136.1,111.2,135,109.7,133.4,109.1"/>
<path id="Tracé_88" class="st0" d="M39.1,92.3h32.2v-8.8H52v-6.6h19.4V51.1H39.2v8.8h19.4v8.2H39.1V92.3z"/>
<path id="Tracé_89" class="st0" d="M111.2,92.3v-12h7v-8.8h-7v-6.3H98.4v6.3H92V0H79.1v34.2H30.9V0H18v92.3h12.8v-48h48.3v36h19.2
	v12H111.2z"/>
<path id="Tracé_78" class="st0" d="M0,102.6v2.4h4.1v12.2h2.5V105h4.1v-2.4H0z"/>
</svg>
